# xmcd
#
# Track frame offsets:
#	150
#	12851
#	28161
#	45418
#	51752
#	72573
#	92756
#	113326
#	131782
#	149321
#	162301
#	181713
#	198445
#	218473
#	234909
#
# Disc length: 3535 seconds
#
# Revision: 0
# Processed by: cddbd v1.5.2PL0 Copyright (c) Steve Scherf et al.
# Submitted via: EasyCDDAExtractor 12.0.1.1
#
DISCID=c40dcd0f
DTITLE=Grupa Bonaca - 30 let CD1
DYEAR=1900
DGENRE=
TTITLE0=Marija
TTITLE1=Neverin
TTITLE2=Moja je nona imela butigu
TTITLE3=Jolanda
TTITLE4=I onput, i onput
TTITLE5=Ona ima neko leto
TTITLE6=Navadit ću te bordižat
TTITLE7=Moji škoji
TTITLE8=Pusti san ti trag
TTITLE9=Mačak z Voloskega
TTITLE10=Ma
TTITLE11=Opatijski barbijer
TTITLE12=A ti pridi
TTITLE13=Mića Pepa
TTITLE14=Pod Učkun
EXTD=
EXTT0=
EXTT1=
EXTT2=
EXTT3=
EXTT4=
EXTT5=
EXTT6=
EXTT7=
EXTT8=
EXTT9=
EXTT10=
EXTT11=
EXTT12=
EXTT13=
EXTT14=
PLAYORDER=
